<svg width="163" height="63" viewBox="0 0 163 63" fill="none" xmlns="http://www.w3.org/2000/svg">
<path d="M57.8702 2.4336L54.1382 4.83866L54.0553 7.1055C54 8.3495 54.0829 9.37234 54.1935 9.37234C54.3041 9.37234 54.8017 9.12354 55.244 8.81945C55.714 8.51536 56.1563 8.26656 56.2945 8.26656C56.4051 8.26656 56.488 9.17883 56.488 10.3122V12.3579L55.244 13.1596L54 13.9337V18.7161C54 21.84 54.0829 23.4433 54.2764 23.3328C54.4423 23.2222 54.5529 21.4806 54.5529 19.0202C54.5529 16.7257 54.6635 14.9012 54.774 14.9565C54.9123 14.9841 56.2668 15.8964 57.8149 16.9469L60.6347 18.882V23.388C60.6347 26.2078 60.7452 27.8941 60.9111 27.8941C61.077 27.8941 61.1875 26.2078 61.1875 23.3604V18.8544L64.7537 16.5875C66.7164 15.3712 68.4027 14.3483 68.4857 14.3483C68.5686 14.3483 68.6515 16.2834 68.6515 18.6332C68.6515 21.3147 68.7621 22.9181 68.928 22.9181C69.0938 22.9181 69.2044 21.1765 69.2044 18.2738V13.6296L65.6936 11.2245L62.1827 8.8471L61.2428 9.37234C60.7452 9.67643 60.2753 9.92523 60.1923 9.92523C60.1371 9.92523 60.0818 8.98532 60.0818 7.8519V5.77857L61.1875 5.05981L62.2933 4.31342V2.15715C62.2933 0.581425 62.2104 -0.0267513 61.9616 0.000893131C61.7681 0.000893131 59.9159 1.10667 57.8702 2.4336ZM61.7404 2.4336V4.06462L58.506 6.08266C56.7368 7.21608 55.1058 8.23892 54.9123 8.3495C54.6082 8.54301 54.5529 8.26656 54.6082 6.8567L54.6911 5.1151L58.0084 2.98649C59.833 1.82542 61.4087 0.830225 61.5469 0.830225C61.6575 0.80258 61.7404 1.54898 61.7404 2.4336ZM59.5289 8.23892V10.3952L58.4231 11.1416C57.8149 11.5286 57.262 11.8603 57.1791 11.8603C57.0962 11.8603 57.0409 10.8928 57.0409 9.70407L57.0685 7.57545L58.2296 6.82906C58.8654 6.44203 59.4183 6.08266 59.4736 6.08266C59.5012 6.05501 59.5289 7.02257 59.5289 8.23892ZM65.4171 11.6945C66.8823 12.7173 68.0433 13.6572 67.9604 13.7954C67.7669 14.1272 61.2152 18.2185 60.8835 18.2185C60.3582 18.2185 54.8293 14.2377 55.0505 14.0166C55.7969 13.2702 61.9339 9.64878 62.2933 9.73172C62.5145 9.787 63.9243 10.6716 65.4171 11.6945Z" fill="white"/>
<path d="M95.7983 7.63076C95.8812 9.78702 95.8812 9.78702 96.9317 10.4505L97.9545 11.114V13.2979V15.5094L97.0423 14.9289L96.13 14.376L92.6192 16.6981L89.1083 19.0479V23.7474C89.1083 26.7054 89.2189 28.447 89.3848 28.447C89.5506 28.447 89.6612 26.816 89.6612 24.1345C89.6612 21.757 89.7718 19.8772 89.91 19.9325C90.0206 19.9602 91.7069 21.0106 93.642 22.227L97.1252 24.4109V28.9169C97.1252 31.7367 97.2358 33.423 97.4017 33.423C97.5675 33.423 97.6781 31.709 97.6781 28.8617V24.3003L100.581 22.3652C102.156 21.3147 103.539 20.4301 103.622 20.4301C103.705 20.4301 103.76 22.3652 103.76 24.715C103.76 27.3965 103.87 28.9999 104.036 28.9999C104.202 28.9999 104.313 27.2306 104.313 24.2174L104.285 19.4626L103.069 18.7162L101.825 17.9698V15.8688C101.825 14.7354 101.908 13.7955 102.046 13.7955C102.156 13.7955 102.626 14.0443 103.069 14.3483C103.539 14.6524 104.009 14.9012 104.119 14.9012C104.23 14.9012 104.313 13.8784 104.257 12.6344L104.175 10.3952L100.304 7.93485C98.1757 6.60792 96.2682 5.50215 96.0747 5.50215C95.7983 5.50215 95.743 6.02739 95.7983 7.63076ZM100.443 8.68125L103.76 10.7822V12.4685V14.1272L102.737 13.4914C102.156 13.132 100.47 12.0815 99.005 11.114L96.2959 9.4V7.82427C96.2959 6.55263 96.3788 6.30383 96.7105 6.44205C96.9317 6.52499 98.618 7.54783 100.443 8.68125ZM100.166 12.5515L101.272 13.2426V15.3159C101.272 16.4493 101.161 17.3892 101.051 17.3892C100.912 17.3892 100.277 17.0022 99.6685 16.5599L98.5074 15.7306V13.7955C98.5074 12.662 98.618 11.8604 98.7839 11.8604C98.9497 11.8604 99.5579 12.1644 100.166 12.5515ZM100.111 17.5275C103.483 19.6561 103.483 19.6561 102.875 20.126C101.797 20.9554 97.9822 23.471 97.5399 23.6369C97.0699 23.8304 89.8271 19.3243 90.1312 19.0479C91.1264 18.1356 95.9641 15.1777 96.2959 15.2606C96.5447 15.3159 98.2586 16.3387 100.111 17.5275Z" fill="white"/>
<path d="M77.9124 5.97211C76.5578 6.13797 74.1528 6.88437 72.9364 7.49255C71.416 8.26659 70.3931 9.28943 70.0061 10.3952C69.0938 13.1596 73.3234 16.0347 78.9352 16.477L81.0915 16.6428V18.5227V20.4301H80.2898C79.184 20.4301 77.2213 21.1765 76.4749 21.8676C75.1756 23.084 76.0879 24.7703 78.3547 25.4337C82.0314 26.4842 87.1733 25.1297 87.1733 23.1116C87.1733 21.8953 84.5471 20.4301 82.3631 20.4301C81.672 20.4301 81.6444 20.3748 81.6444 18.5227V16.6428L83.8007 16.477C84.9617 16.394 86.731 16.0623 87.7262 15.7582C95.5495 13.3255 94.4714 7.82428 85.874 6.16562C83.9665 5.80624 79.9028 5.69566 77.9124 5.97211ZM85.9846 6.77379C88.4726 7.27139 91.0158 8.48774 91.8452 9.53823C92.6469 10.5611 92.5916 11.888 91.7346 12.9385C90.1312 14.8183 86.1781 16.007 81.3403 16.007C75.2585 16.007 70.4761 13.8508 70.4761 11.1416C70.4761 9.26179 73.4893 7.27139 77.3042 6.63557C79.6816 6.24855 83.7454 6.30384 85.9846 6.77379ZM81.0915 22.0888C81.0915 22.697 81.2297 23.1946 81.3679 23.1946C81.5338 23.1946 81.6444 22.697 81.6444 22.0888C81.6444 21.0659 81.6997 20.983 82.4184 20.983C83.6348 20.983 85.1829 21.5082 85.9569 22.1994C88.5002 24.3833 81.6167 26.4013 77.8848 24.5491C75.6456 23.4434 75.9497 22.0611 78.6312 21.3147C79.1564 21.1489 79.9028 21.0106 80.3451 21.0106C81.0362 20.983 81.0915 21.0659 81.0915 22.0888Z" fill="white"/>
<line x1="16" y1="30" x2="51" y2="30" stroke="#F5F3F0" stroke-width="2"/>
<line x1="3.00637" y1="36" x2="161.006" y2="37.0064" stroke="#F5F3F0" stroke-width="2"/>
<line x1="108" y1="30" x2="147" y2="30" stroke="#F5F3F0" stroke-width="2"/>
<path d="M7.23418 44.9466C5.37418 44.9466 4.44418 46.7406 4.44418 50.3286V51.7506C4.44418 53.4546 4.69018 54.7926 5.18218 55.7646C5.67418 56.7246 6.40018 57.2046 7.36018 57.2046C8.68018 57.2046 9.89218 55.9206 10.9962 53.3526H11.3202L11.1942 57.3666H10.9962C10.9242 57.2346 10.8582 57.1446 10.7982 57.0966C10.7382 57.0366 10.6482 57.0066 10.5282 57.0066C10.4202 57.0066 9.98818 57.1026 9.23218 57.2946C8.47618 57.4746 7.70818 57.5646 6.92818 57.5646C4.97218 57.5646 3.45418 57.0366 2.37418 55.9806C1.30618 54.9246 0.77218 53.3406 0.77218 51.2286C0.77218 49.1046 1.33018 47.4666 2.44618 46.3146C3.57418 45.1626 5.08618 44.5866 6.98218 44.5866C7.71418 44.5866 8.42818 44.6826 9.12418 44.8746C9.83218 45.0546 10.2462 45.1446 10.3662 45.1446C10.4862 45.1446 10.5762 45.1206 10.6362 45.0726C10.6962 45.0126 10.7622 44.9166 10.8342 44.7846H11.0322L11.1762 48.6906H10.8522C10.3122 47.4786 9.75418 46.5546 9.17818 45.9186C8.61418 45.2706 7.96618 44.9466 7.23418 44.9466ZM19.8864 57.0426L18.5724 53.1546H15.0084L13.6224 57.0426H14.9724V57.3846H12.2184V57.0426H13.0644L17.6544 44.6766H19.1304L23.6664 57.0426H24.4944V57.3846H18.6084V57.0426H19.8864ZM16.8624 48.0426L15.1704 52.7586H18.4284L16.8624 48.0426ZM24.9864 44.7846H34.3464L34.5264 48.5286H34.2024C33.7584 47.2326 33.2424 46.3506 32.6544 45.8826C32.0784 45.4146 31.2144 45.1806 30.0624 45.1806H29.5584V51.0306H30.3684C30.9444 51.0306 31.4244 50.8206 31.8084 50.4006C32.1924 49.9806 32.4564 49.4046 32.6004 48.6726H32.8704V54.0006H32.5644C32.3724 53.1006 32.1024 52.4586 31.7544 52.0746C31.4184 51.6906 30.9564 51.4986 30.3684 51.4986H29.5584V56.9886H31.7904V57.3846H24.9864V56.9886H26.0484V45.1806H24.9864V44.7846ZM35.6387 44.7846H44.9987L45.1787 48.3486H44.8547C44.3507 47.1366 43.8227 46.3086 43.2707 45.8646C42.7187 45.4086 41.9087 45.1806 40.8407 45.1806H40.2107V50.7426H40.8227C41.3867 50.7426 41.8607 50.5326 42.2447 50.1126C42.6287 49.6806 42.8987 49.1046 43.0547 48.3846H43.3247V53.7126H43.0187C42.8027 52.8126 42.5087 52.1706 42.1367 51.7866C41.7767 51.4026 41.2787 51.2106 40.6427 51.2106H40.2107V56.9886H40.8947C41.9987 56.9886 42.9347 56.6586 43.7027 55.9986C44.4827 55.3386 45.0167 54.4926 45.3047 53.4606H45.6647L45.5207 57.3846H35.6387V56.9886H36.7007V45.1806H35.6387V44.7846ZM38.9867 44.0106L41.0567 41.0946L41.9207 41.1666C42.2207 41.1906 42.4367 41.2806 42.5687 41.4366C42.7127 41.5926 42.7847 41.7726 42.7847 41.9766C42.7847 42.4566 42.5207 42.8046 41.9927 43.0206L39.1307 44.1906L38.9867 44.0106ZM49.9975 44.7846H55.2895C57.1015 44.7846 58.4515 45.0486 59.3395 45.5766C60.2275 46.0926 60.6715 47.0226 60.6715 48.3666C60.6715 49.8546 60.1315 50.8806 59.0515 51.4446C58.0435 51.9606 56.6335 52.2186 54.8215 52.2186H54.6775V57.0426H56.9275V57.3846H49.9975V57.0426H51.1675V45.1266H49.9975V44.7846ZM54.6775 45.1266V51.8766H55.0555C55.7755 51.8766 56.2735 51.6306 56.5495 51.1386C56.8255 50.6466 56.9635 49.8486 56.9635 48.7446V47.8806C56.9635 46.8606 56.8315 46.1466 56.5675 45.7386C56.3155 45.3306 55.8475 45.1266 55.1635 45.1266H54.6775ZM66.9254 57.0426L65.6114 53.1546H62.0474L60.6614 57.0426H62.0114V57.3846H59.2574V57.0426H60.1034L64.6934 44.6766H66.1694L70.7054 57.0426H71.5334V57.3846H65.6474V57.0426H66.9254ZM63.9014 48.0426L62.2094 52.7586H65.4674L63.9014 48.0426ZM77.5515 51.0126H76.5975V57.0426H77.7675V57.3846H71.9175V57.0426H73.0875V45.1266H71.9175V44.7846H77.3535C78.9135 44.7846 80.0175 44.8686 80.6655 45.0366C81.3255 45.1926 81.7875 45.3846 82.0515 45.6126C82.6275 46.0806 82.9155 46.8246 82.9155 47.8446C82.9155 48.8646 82.6635 49.5966 82.1595 50.0406C81.6555 50.4726 80.8875 50.7306 79.8555 50.8146V50.8686C80.8275 51.0006 81.5055 51.2886 81.8895 51.7326C82.2735 52.1766 82.4655 52.9206 82.4655 53.9646V54.9186C82.4655 55.5426 82.4955 55.9626 82.5555 56.1786C82.6275 56.3946 82.7715 56.5026 82.9875 56.5026C83.2035 56.5026 83.3715 56.4066 83.4915 56.2146C83.6235 56.0106 83.7435 55.5906 83.8515 54.9546L84.1575 54.9906C84.0255 56.0106 83.7915 56.6946 83.4555 57.0426C83.1315 57.3906 82.4775 57.5646 81.4935 57.5646C80.5095 57.5646 79.8075 57.3366 79.3875 56.8806C78.9795 56.4126 78.7755 55.5426 78.7755 54.2706V52.9566C78.7755 52.2846 78.6855 51.7926 78.5055 51.4806C78.3375 51.1686 78.0195 51.0126 77.5515 51.0126ZM76.5975 45.1266V50.6706H77.1735C77.8575 50.6706 78.3615 50.4606 78.6855 50.0406C79.0215 49.6206 79.1895 48.9366 79.1895 47.9886V47.4666C79.1895 46.5186 79.0275 45.8946 78.7035 45.5946C78.3915 45.2826 77.8875 45.1266 77.1915 45.1266H76.5975ZM92.1324 57.0426L90.8184 53.1546H87.2544L85.8684 57.0426H87.2184V57.3846H84.4644V57.0426H85.3104L89.9004 44.6766H91.3764L95.9124 57.0426H96.7404V57.3846H90.8544V57.0426H92.1324ZM89.1084 48.0426L87.4164 52.7586H90.6744L89.1084 48.0426ZM111.537 44.7846L111.717 49.3026H111.375C110.847 47.7066 110.379 46.6206 109.971 46.0446C109.563 45.4566 108.975 45.1626 108.207 45.1626H107.991V57.0066H109.521V57.3846H102.951V57.0066H104.481V45.1626H104.247C103.479 45.1626 102.885 45.4686 102.465 46.0806C102.045 46.6806 101.583 47.7546 101.079 49.3026H100.737L100.917 44.7846H111.537ZM120.849 51.8226V50.4906C120.849 48.2946 120.741 46.9086 120.525 46.3326C120.285 45.6726 119.943 45.2646 119.499 45.1086C119.247 45.0126 118.941 44.9646 118.581 44.9646C118.221 44.9646 117.909 45.0126 117.645 45.1086C117.393 45.2046 117.183 45.3726 117.015 45.6126C116.847 45.8526 116.709 46.1046 116.601 46.3686C116.505 46.6326 116.427 47.0046 116.367 47.4846C116.295 48.1806 116.259 49.2066 116.259 50.5626V51.8586C116.259 53.3226 116.313 54.3666 116.421 54.9906C116.541 55.6026 116.685 56.0406 116.853 56.3046C117.225 56.8926 117.801 57.1866 118.581 57.1866C119.529 57.1866 120.141 56.7906 120.417 55.9986C120.705 55.1946 120.849 53.8026 120.849 51.8226ZM118.545 57.5646C116.541 57.5646 115.041 57.0246 114.045 55.9446C113.061 54.8526 112.569 53.2806 112.569 51.2286C112.569 49.1646 113.097 47.5446 114.153 46.3686C115.221 45.1806 116.727 44.5866 118.671 44.5866C120.615 44.5866 122.079 45.1506 123.063 46.2786C124.059 47.3946 124.557 48.9846 124.557 51.0486C124.557 53.1126 124.053 54.7146 123.045 55.8546C122.049 56.9946 120.549 57.5646 118.545 57.5646ZM138.148 50.8686C138.148 53.3406 137.452 55.0626 136.06 56.0346C134.776 56.9346 133.012 57.3846 130.768 57.3846H125.674V57.0426H126.862V45.1266H125.674V44.7846H131.236C133.54 44.7846 135.268 45.2586 136.42 46.2066C137.572 47.1426 138.148 48.6966 138.148 50.8686ZM130.372 57.0426H131.056C132.268 57.0426 133.132 56.6166 133.648 55.7646C134.176 54.9006 134.44 53.4606 134.44 51.4446V50.4006C134.44 47.7006 133.924 46.0746 132.892 45.5226C132.4 45.2586 131.704 45.1266 130.804 45.1266H130.372V57.0426ZM147.902 51.8226V50.4906C147.902 48.2946 147.794 46.9086 147.578 46.3326C147.338 45.6726 146.996 45.2646 146.552 45.1086C146.3 45.0126 145.994 44.9646 145.634 44.9646C145.274 44.9646 144.962 45.0126 144.698 45.1086C144.446 45.2046 144.236 45.3726 144.068 45.6126C143.9 45.8526 143.762 46.1046 143.654 46.3686C143.558 46.6326 143.48 47.0046 143.42 47.4846C143.348 48.1806 143.312 49.2066 143.312 50.5626V51.8586C143.312 53.3226 143.366 54.3666 143.474 54.9906C143.594 55.6026 143.738 56.0406 143.906 56.3046C144.278 56.8926 144.854 57.1866 145.634 57.1866C146.582 57.1866 147.194 56.7906 147.47 55.9986C147.758 55.1946 147.902 53.8026 147.902 51.8226ZM145.598 57.5646C143.594 57.5646 142.094 57.0246 141.098 55.9446C140.114 54.8526 139.622 53.2806 139.622 51.2286C139.622 49.1646 140.15 47.5446 141.206 46.3686C142.274 45.1806 143.78 44.5866 145.724 44.5866C147.668 44.5866 149.132 45.1506 150.116 46.2786C151.112 47.3946 151.61 48.9846 151.61 51.0486C151.61 53.1126 151.106 54.7146 150.098 55.8546C149.102 56.9946 147.602 57.5646 145.598 57.5646ZM158.023 57.1866C158.623 57.1866 159.151 57.0246 159.607 56.7006C160.075 56.3766 160.309 55.8906 160.309 55.2426C160.309 54.5826 160.057 54.0786 159.553 53.7306C159.061 53.3826 158.353 53.0826 157.429 52.8306C156.517 52.5666 155.851 52.3386 155.431 52.1466C155.023 51.9546 154.633 51.7026 154.261 51.3906C153.517 50.7666 153.145 49.8006 153.145 48.4926C153.145 47.4246 153.523 46.5066 154.279 45.7386C155.047 44.9706 156.091 44.5866 157.411 44.5866C158.047 44.5866 158.707 44.6826 159.391 44.8746C160.087 45.0546 160.519 45.1446 160.687 45.1446C160.855 45.1446 161.005 45.0246 161.137 44.7846H161.335L161.461 48.4206H161.173C160.597 47.3766 159.991 46.5426 159.355 45.9186C158.731 45.2826 158.047 44.9646 157.303 44.9646C156.571 44.9646 156.001 45.1386 155.593 45.4866C155.185 45.8226 154.981 46.2786 154.981 46.8546C154.981 47.4186 155.221 47.8566 155.701 48.1686C156.193 48.4686 156.793 48.7146 157.501 48.9066C158.209 49.0986 158.671 49.2306 158.887 49.3026C159.115 49.3746 159.391 49.4766 159.715 49.6086C160.051 49.7286 160.321 49.8606 160.525 50.0046C160.741 50.1366 160.963 50.3106 161.191 50.5266C161.431 50.7306 161.617 50.9586 161.749 51.2106C162.073 51.7866 162.235 52.4706 162.235 53.2626C162.235 54.5586 161.827 55.6026 161.011 56.3946C160.207 57.1746 159.145 57.5646 157.825 57.5646C157.141 57.5646 156.355 57.4746 155.467 57.2946C154.591 57.1146 154.105 57.0246 154.009 57.0246C153.841 57.0246 153.679 57.2046 153.523 57.5646H153.271L153.091 53.2806H153.397C153.925 54.3246 154.597 55.2366 155.413 56.0166C156.241 56.7966 157.111 57.1866 158.023 57.1866Z" fill="#F5F3F0"/>
</svg>
